<svg xmlns="http://www.w3.org/2000/svg" width="2048" height="960" viewBox="0 0 2048 960"><g transform="translate(0 0)"><defs><linearGradient id="c0"><stop stop-color="#7557c8"/><stop offset="1" stop-color="#79c9bd"/></linearGradient></defs><rect width="512" height="320" fill="url(#c0)"/><circle cx="170" cy="140" r="72" fill="#efbd9d"/><path d="M95 320Q110 215 170 205Q230 215 245 320Z" fill="#334d79"/><circle cx="350" cy="145" r="70" fill="#e7b596"/><path d="M275 320Q290 220 350 210Q410 220 425 320Z" fill="#6b334b"/><rect y="252" width="512" height="68" fill="#0d0913aa"/><text x="20" y="293" fill="white" font-family="Arial" font-weight="700" font-size="22">INTRO</text></g><g transform="translate(512 0)"><defs><linearGradient id="c1"><stop stop-color="#5d7295"/><stop offset="1" stop-color="#ef789f"/></linearGradient></defs><rect width="512" height="320" fill="url(#c1)"/><circle cx="170" cy="140" r="72" fill="#efbd9d"/><path d="M95 320Q110 215 170 205Q230 215 245 320Z" fill="#334d79"/><circle cx="350" cy="145" r="70" fill="#e7b596"/><path d="M275 320Q290 220 350 210Q410 220 425 320Z" fill="#6b334b"/><rect y="252" width="512" height="68" fill="#0d0913aa"/><text x="20" y="293" fill="white" font-family="Arial" font-weight="700" font-size="22">RAIN</text></g><g transform="translate(1024 0)"><defs><linearGradient id="c2"><stop stop-color="#7557c8"/><stop offset="1" stop-color="#ef789f"/></linearGradient></defs><rect width="512" height="320" fill="url(#c2)"/><circle cx="170" cy="140" r="72" fill="#efbd9d"/><path d="M95 320Q110 215 170 205Q230 215 245 320Z" fill="#334d79"/><circle cx="350" cy="145" r="70" fill="#e7b596"/><path d="M275 320Q290 220 350 210Q410 220 425 320Z" fill="#6b334b"/><rect y="252" width="512" height="68" fill="#0d0913aa"/><text x="20" y="293" fill="white" font-family="Arial" font-weight="700" font-size="22">ROOFTOP</text></g><g transform="translate(1536 0)"><defs><linearGradient id="c3"><stop stop-color="#5d7295"/><stop offset="1" stop-color="#79c9bd"/></linearGradient></defs><rect width="512" height="320" fill="url(#c3)"/><circle cx="170" cy="140" r="72" fill="#efbd9d"/><path d="M95 320Q110 215 170 205Q230 215 245 320Z" fill="#334d79"/><circle cx="350" cy="145" r="70" fill="#e7b596"/><path d="M275 320Q290 220 350 210Q410 220 425 320Z" fill="#6b334b"/><rect y="252" width="512" height="68" fill="#0d0913aa"/><text x="20" y="293" fill="white" font-family="Arial" font-weight="700" font-size="22">FESTIVAL</text></g><g transform="translate(0 320)"><defs><linearGradient id="c4"><stop stop-color="#7557c8"/><stop offset="1" stop-color="#ef789f"/></linearGradient></defs><rect width="512" height="320" fill="url(#c4)"/><circle cx="170" cy="140" r="72" fill="#efbd9d"/><path d="M95 320Q110 215 170 205Q230 215 245 320Z" fill="#334d79"/><circle cx="350" cy="145" r="70" fill="#e7b596"/><path d="M275 320Q290 220 350 210Q410 220 425 320Z" fill="#6b334b"/><rect y="252" width="512" height="68" fill="#0d0913aa"/><text x="20" y="293" fill="white" font-family="Arial" font-weight="700" font-size="22">LIBRARY</text></g><g transform="translate(512 320)"><defs><linearGradient id="c5"><stop stop-color="#5d7295"/><stop offset="1" stop-color="#ef789f"/></linearGradient></defs><rect width="512" height="320" fill="url(#c5)"/><circle cx="170" cy="140" r="72" fill="#efbd9d"/><path d="M95 320Q110 215 170 205Q230 215 245 320Z" fill="#334d79"/><circle cx="350" cy="145" r="70" fill="#e7b596"/><path d="M275 320Q290 220 350 210Q410 220 425 320Z" fill="#6b334b"/><rect y="252" width="512" height="68" fill="#0d0913aa"/><text x="20" y="293" fill="white" font-family="Arial" font-weight="700" font-size="22">STUDIO</text></g><g transform="translate(1024 320)"><defs><linearGradient id="c6"><stop stop-color="#7557c8"/><stop offset="1" stop-color="#79c9bd"/></linearGradient></defs><rect width="512" height="320" fill="url(#c6)"/><circle cx="170" cy="140" r="72" fill="#efbd9d"/><path d="M95 320Q110 215 170 205Q230 215 245 320Z" fill="#334d79"/><circle cx="350" cy="145" r="70" fill="#e7b596"/><path d="M275 320Q290 220 350 210Q410 220 425 320Z" fill="#6b334b"/><rect y="252" width="512" height="68" fill="#0d0913aa"/><text x="20" y="293" fill="white" font-family="Arial" font-weight="700" font-size="22">PHOTO</text></g><g transform="translate(1536 320)"><defs><linearGradient id="c7"><stop stop-color="#5d7295"/><stop offset="1" stop-color="#ef789f"/></linearGradient></defs><rect width="512" height="320" fill="url(#c7)"/><circle cx="170" cy="140" r="72" fill="#efbd9d"/><path d="M95 320Q110 215 170 205Q230 215 245 320Z" fill="#334d79"/><circle cx="350" cy="145" r="70" fill="#e7b596"/><path d="M275 320Q290 220 350 210Q410 220 425 320Z" fill="#6b334b"/><rect y="252" width="512" height="68" fill="#0d0913aa"/><text x="20" y="293" fill="white" font-family="Arial" font-weight="700" font-size="22">CONFESSION</text></g><g transform="translate(0 640)"><defs><linearGradient id="c8"><stop stop-color="#7557c8"/><stop offset="1" stop-color="#ef789f"/></linearGradient></defs><rect width="512" height="320" fill="url(#c8)"/><circle cx="170" cy="140" r="72" fill="#efbd9d"/><path d="M95 320Q110 215 170 205Q230 215 245 320Z" fill="#334d79"/><circle cx="350" cy="145" r="70" fill="#e7b596"/><path d="M275 320Q290 220 350 210Q410 220 425 320Z" fill="#6b334b"/><rect y="252" width="512" height="68" fill="#0d0913aa"/><text x="20" y="293" fill="white" font-family="Arial" font-weight="700" font-size="22">GAEL</text></g><g transform="translate(512 640)"><defs><linearGradient id="c9"><stop stop-color="#5d7295"/><stop offset="1" stop-color="#79c9bd"/></linearGradient></defs><rect width="512" height="320" fill="url(#c9)"/><circle cx="170" cy="140" r="72" fill="#efbd9d"/><path d="M95 320Q110 215 170 205Q230 215 245 320Z" fill="#334d79"/><circle cx="350" cy="145" r="70" fill="#e7b596"/><path d="M275 320Q290 220 350 210Q410 220 425 320Z" fill="#6b334b"/><rect y="252" width="512" height="68" fill="#0d0913aa"/><text x="20" y="293" fill="white" font-family="Arial" font-weight="700" font-size="22">LEON</text></g><g transform="translate(1024 640)"><defs><linearGradient id="c10"><stop stop-color="#7557c8"/><stop offset="1" stop-color="#ef789f"/></linearGradient></defs><rect width="512" height="320" fill="url(#c10)"/><circle cx="170" cy="140" r="72" fill="#efbd9d"/><path d="M95 320Q110 215 170 205Q230 215 245 320Z" fill="#334d79"/><circle cx="350" cy="145" r="70" fill="#e7b596"/><path d="M275 320Q290 220 350 210Q410 220 425 320Z" fill="#6b334b"/><rect y="252" width="512" height="68" fill="#0d0913aa"/><text x="20" y="293" fill="white" font-family="Arial" font-weight="700" font-size="22">RAVI</text></g><g transform="translate(1536 640)"><defs><linearGradient id="c11"><stop stop-color="#5d7295"/><stop offset="1" stop-color="#ef789f"/></linearGradient></defs><rect width="512" height="320" fill="url(#c11)"/><circle cx="170" cy="140" r="72" fill="#efbd9d"/><path d="M95 320Q110 215 170 205Q230 215 245 320Z" fill="#334d79"/><circle cx="350" cy="145" r="70" fill="#e7b596"/><path d="M275 320Q290 220 350 210Q410 220 425 320Z" fill="#6b334b"/><rect y="252" width="512" height="68" fill="#0d0913aa"/><text x="20" y="293" fill="white" font-family="Arial" font-weight="700" font-size="22">SOLO</text></g></svg>